P3
20 11
255
218 234 255
218 234 255
218 234 255
218 234 255
218 234 255
218 234 255
218 234 255
218 234 255
218 234 255
218 234 255
218 234 255
218 234 255
218 234 255
218 234 255
218 234 255
218 234 255
218 234 255
218 234 255
218 234 255
218 234 255
220 235 255
220 235 255
220 235 255
220 235 255
220 235 255
220 235 255
220 235 255
220 235 255
220 235 255
220 235 255
220 235 255
220 235 255
220 235 255
220 235 255
220 235 255
220 235 255
220 235 255
220 235 255
220 235 255
220 235 255
221 235 255
221 235 255
221 235 255
221 235 255
221 235 255
221 235 255
221 235 255
207 217 234
208 220 238
206 220 240
217 232 252
216 229 248
210 222 240
217 231 250
221 235 255
221 235 255
221 235 255
221 235 255
221 235 255
221 235 255
222 236 255
222 236 255
222 236 255
222 236 255
222 236 255
222 236 255
175 176 184
124 111 108
130 137 151
119 119 159
160 169 181
158 169 181
154 167 181
161 171 182
197 207 220
222 236 255
222 236 255
222 236 255
222 236 255
222 236 255
164 179 200
163 178 200
164 180 203
163 177 198
165 184 205
155 172 197
114 100 97
130 136 151
107 121 139
145 154 162
167 173 181
161 170 181
159 169 181
161 170 181
169 174 181
173 184 200
157 173 189
157 171 192
152 168 195
163 173 203
86 101 124
86 123 117
105 121 141
103 127 124
124 149 156
99 131 158
80 93 105
171 182 204
213 229 252
174 178 184
174 174 176
177 178 180
177 178 181
177 178 180
175 175 177
147 154 166
102 127 152
116 127 140
69 99 125
91 118 124
144 140 176
100 106 146
137 155 166
108 127 143
107 146 140
101 85 140
89 130 145
109 103 163
170 189 219
129 141 157
93 98 103
98 100 103
102 100 106
103 109 117
92 91 106
90 87 92
84 103 104
82 115 129
119 114 146
123 140 173
93 121 127
96 114 123
103 142 129
107 132 170
50 89 144
121 129 149
126 121 138
100 101 149
116 142 147
120 136 154
93 102 96
98 101 98
99 102 99
100 104 109
101 106 114
119 136 154
82 127 98
71 108 76
124 130 157
141 157 183
59 107 154
106 127 165
131 150 173
125 126 145
107 50 53
87 103 126
110 112 137
117 141 145
78 129 50
119 135 148
112 128 122
116 125 60
84 86 76
87 90 95
113 125 140
122 137 156
111 138 183
105 82 159
133 104 153
142 162 185
78 101 148
100 118 160
129 146 171
123 135 156
107 108 124
107 98 114
99 97 115
124 142 162
122 139 157
97 92 113
84 62 81
97 107 75
114 126 135
119 133 151
123 134 154
148 102 118
148 155 162
101 114 148
117 120 148
127 144 167
121 138 161
129 147 171
132 150 174
132 150 174
131 148 172
126 83 73
125 100 101
122 142 168
125 142 165
104 112 133
93 97 116
119 131 149
116 114 125
126 133 153
128 59 76
135 44 63
135 83 99
125 143 165
130 147 171
159 172 223
